<svg xmlns="http://www.w3.org/2000/svg" viewBox="0 0 64 64" role="img" aria-labelledby="title desc">
  <title id="title">Tickety</title>
  <desc id="desc">Tickety Precision Window app icon.</desc>
  <rect width="64" height="64" rx="14" fill="#0A0B0D"/>
  <g fill="#FFFFFF" transform="translate(5.12 5.12) scale(.84)">
    <path d="M12 8H26Q28 8 28 10V14Q28 16 26 16H18Q16 16 16 18V46Q16 48 18 48H26Q28 48 28 50V54Q28 56 26 56H12Q8 56 8 52V12Q8 8 12 8Z"/>
    <path d="M52 8H38Q36 8 36 10V14Q36 16 38 16H46Q48 16 48 18V46Q48 48 46 48H38Q36 48 36 50V54Q36 56 38 56H52Q56 56 56 52V12Q56 8 52 8Z"/>
  </g>
</svg>
